<?xml version="1.0" encoding="UTF-8"?>
<svg id="Layer_1" data-name="Layer 1" xmlns="http://www.w3.org/2000/svg" viewBox="0 0 500 161.43">
  <defs>
    <style>
      .cls-1 {
        fill: #3856c4;
      }

      .cls-1, .cls-2 {
        stroke-width: 0px;
      }
    </style>
  </defs>
  <path class="cls-1" d="m417.77,38.8c19.06-4.58,29.7-16.8,35.55-34.69,5.92,17.77,16.07,29.65,34.29,34.67-17.23,5.86-28.44,16.68-33.88,35.09-6.4-17.43-16.47-30.56-35.96-35.07Z"/>
  <g>
    <path class="cls-2" d="m55.58,120.9l-.64-11.49h-6.55l-.64,11.49H13.9c.71-11.74,2.18-23.79,4.4-36.14,2.22-12.35,4.26-21.79,6.12-28.3l2.69-9.77h50.91c.79,2.58,1.79,6.16,3.01,10.74,1.22,4.58,3.01,13.37,5.37,26.37,2.36,13,3.97,25.37,4.83,37.11h-35.66Zm-5.59-38.13l-.86,16.76h5.05l-.75-16.76h-3.44Z"/>
    <path class="cls-2" d="m124.96,56.34c5.66,0,10.76.32,15.31.97,4.55.64,7.68,1.29,9.4,1.93l2.47.97v26.85c-4.87-2.51-12.14-3.76-21.81-3.76v2.58c8.88.86,14.97,2.4,18.26,4.62,3.29,2.22,4.94,6.27,4.94,12.14s-2.19,10.56-6.55,14.07c-4.37,3.51-12,5.26-22.88,5.26-5.8,0-10.96-.32-15.47-.97-4.51-.64-7.59-1.29-9.24-1.93l-2.47-.97v-23.31c2,1,5.1,1.92,9.29,2.74,4.19.82,8.5,1.24,12.94,1.24v-2.58c-7.66-.71-13.46-2.47-17.4-5.26-3.94-2.79-5.91-7.32-5.91-13.59s2.4-11.33,7.2-15.2c4.8-3.87,12.1-5.8,21.91-5.8Z"/>
    <path class="cls-2" d="m197.68,87.39v4.83h9.67v25.35c-.36.36-.95.77-1.77,1.24-.82.47-2.95,1.11-6.39,1.93-3.44.82-7.41,1.24-11.92,1.24-16.4,0-24.6-7.16-24.6-21.48v-13.1h-4.19v-26.75c3.08-.93,5.8-2.65,8.16-5.16,2.36-2.51,3.97-4.76,4.83-6.77l1.29-3.11h26.96v11.82h7.63v29.97h-9.67Z"/>
    <path class="cls-2" d="m213.58,89.26c0-10.92,2.49-19.14,7.46-24.65,4.98-5.51,13.12-8.27,24.44-8.27s19.19,2.29,23.63,6.87c4.44,4.58,6.66,12.1,6.66,22.56l-.54,8.27h-29.65v3.65c1.79.43,4.4.64,7.84.64,7.3,0,13.21-.32,17.72-.97l2.26-.32v20.19c-.57.36-1.49.81-2.74,1.34-1.25.54-4.24,1.24-8.97,2.09s-9.99,1.29-15.79,1.29c-11.46,0-19.71-2.72-24.76-8.16-5.05-5.44-7.57-13.62-7.57-24.54Zm30.4-4.78v4.19h6.12v-4.19c0-.93-.31-1.68-.91-2.26-.61-.57-1.36-.86-2.26-.86s-1.61.29-2.15.86c-.54.57-.81,1.33-.81,2.26Z"/>
    <path class="cls-2" d="m313.9,120.9h-32.01v-63.48h26.96l1.07,7.84c.14-.21.32-.5.54-.86.21-.36.82-.98,1.83-1.88,1-.89,2.15-1.7,3.44-2.42,3.58-1.79,8.09-2.69,13.53-2.69v34.16l-15.36-1.5v30.83Z"/>
    <path class="cls-2" d="m349.13,62.68c-5.44,0-9.45-1.07-12.03-3.22-2.58-2.15-3.87-5.59-3.87-10.31s1.31-8.13,3.92-10.2c2.61-2.08,6.61-3.12,11.98-3.12,10.74,0,16.11,4.33,16.11,13,0,4.94-1.33,8.49-3.97,10.63-2.65,2.15-6.7,3.22-12.14,3.22Zm-15.9,58.22v-55.75h32.01v55.75h-32.01Z"/>
    <path class="cls-2" d="m434.52,80.3l-.54,13.21,2.69-.11v24.38c-1.29,1.07-3.51,2.04-6.66,2.9-3.15.86-6.12,1.29-8.92,1.29s-5.01-.25-6.66-.75c-1.65-.5-2.86-1.06-3.65-1.67-.79-.61-1.4-1.31-1.83-2.09-.64-1.14-.97-2.11-.97-2.9-3.94,4.94-10.2,7.41-18.8,7.41-11.82,0-17.72-5.01-17.72-15.04,0-6.01,2.29-10.29,6.87-12.84,4.58-2.54,12.6-4.06,24.06-4.57,0-2.5-2.76-3.76-8.27-3.76-3.72,0-7.29.47-10.69,1.4-3.4.93-5.85,1.86-7.36,2.79l-2.36,1.4v-28.25c.64-.5,1.61-1.13,2.9-1.88s4.33-1.75,9.13-3.01c4.8-1.25,10.06-1.88,15.79-1.88,11.46,0,19.82,1.93,25.08,5.8,5.26,3.87,7.9,9.92,7.9,18.15Zm-30.4,17.08v-4.3l-6.12,1.72v2.58c0,.93.3,1.68.91,2.26.61.57,1.36.86,2.25.86s1.61-.29,2.15-.86c.54-.57.81-1.32.81-2.26Z"/>
  </g>
</svg>