<svg width="64" height="64" viewBox="0 0 64 64" fill="none" xmlns="http://www.w3.org/2000/svg">
<path d="M31.5312 56.5334V32.5974H55.4673V56.5334H31.5312Z" fill="#F9FAFF"/>
<path d="M43.4534 32.5333C36.8259 32.5333 31.4531 27.1607 31.4531 20.533C31.4531 13.9054 36.8259 8.53271 43.4534 8.53271C50.0811 8.53271 55.4538 13.9054 55.4538 20.533C55.4538 27.1607 50.0811 32.5333 43.4534 32.5333Z" fill="#F9FAFF"/>
<path d="M7.46875 8.5354H19.4367C26.0465 8.5354 31.4047 13.8936 31.4047 20.5035C31.4047 27.1132 26.0465 32.4713 19.4367 32.4713H7.46875V8.5354Z" fill="#F9FAFF"/>
<path d="M7.46876 56.5334L7.46875 32.5974L19.3739 44.6283L31.4047 56.5334H7.46876Z" fill="#F9FAFF"/>
<path d="M31.5312 56.5334V32.5974H55.4672V56.5334H31.5312Z" fill="#0047FF"/>
<path d="M43.4613 32.5333C36.8336 32.5333 31.4609 27.1607 31.4609 20.533C31.4609 13.9054 36.8336 8.53271 43.4613 8.53271C50.0888 8.53271 55.4616 13.9054 55.4616 20.533C55.4616 27.1607 50.0889 32.5333 43.4613 32.5333Z" fill="#2EBEEC"/>
<g opacity="0.6">
<path d="M7.46875 8.5354H19.4367C26.0465 8.5354 31.4048 13.8936 31.4048 20.5035C31.4048 27.1132 26.0465 32.4713 19.4367 32.4713H7.46875V8.5354Z" fill="#FF8221"/>
</g>
<g style="mix-blend-mode:multiply">
<path opacity="0.6" d="M7.46875 56.5334V32.5974L19.3738 44.6283L31.4048 56.5334H7.46875Z" fill="#2EBEEC"/>
</g>
</svg>
