<?xml version="1.0" encoding="utf-8"?>
<!-- Generator: Adobe Illustrator 28.0.0, SVG Export Plug-In . SVG Version: 6.00 Build 0)  -->
<svg version="1.1" id="Layer_1" xmlns="http://www.w3.org/2000/svg" xmlns:xlink="http://www.w3.org/1999/xlink" x="0px" y="0px"
	 viewBox="0 0 512 512" style="enable-background:new 0 0 512 512;" xml:space="preserve">
<style type="text/css">
	.st0{fill:#2DBAEC;}
	.st1{opacity:0.4;fill:#FFFFFF;enable-background:new    ;}
	.st2{fill:#007DFF;}
	.st3{opacity:0.4;fill:#2DBAEC;enable-background:new    ;}
	.st4{fill:#FDB27A;}
	.st5{fill:#0047FF;}
</style>
<path class="st0" d="M478.5,423.5l-1.4-9.5l-3.3-22.6c-28.2-190.8-26.5-186.8-28.8-190.9c-3.1-6.7-9.9-11.2-17.6-11.2H262
	c-5.3,0-10.2,2.2-13.8,5.7c6.6,1.6,11.4,7.4,11.4,14.5c0,8.3-6.6,15-14.9,15c0,0,0,0-0.1,0c-1.6,0-3.1-0.3-4.5-0.7l-25.4,173.4
	l-1.3,9l-1.1,7.7l-1.4,9.5l-2.2,15.4h272L478.5,423.5z M406.4,222.1L406.4,222.1c7.2,0,13,5.8,13,12.9c0,7.1-5.8,13-12.9,13
	c-7.2,0-13-5.9-13-13C393.5,227.8,399.2,222.1,406.4,222.1L406.4,222.1z M283,222.1c7.2,0,13,5.8,13,12.9c0,7.1-5.8,13-13,13
	c-7.1,0-13-5.9-13-13C270,227.8,275.9,222.1,283,222.1z"/>
<path class="st1" d="M478.5,423.5l-1.4-9.5l-3.3-22.6c-28.2-190.8-26.5-186.8-28.8-190.9c-42.1,98-124.9,171.7-223.7,203.4
	c-2.6,0.9-5.2,1.7-7.8,2.4l-1.1,7.7l0,0l-1.4,9.5l-2.2,15.4h272L478.5,423.5z"/>
<path class="st2" d="M492.4,429.3c0,8.5-6.9,15.5-15.5,15.5H212.7c-8.5,0-15.5-6.9-15.5-15.5c0-8.5,6.9-15.5,15.5-15.5h264.2
	C485.4,413.8,492.4,420.8,492.4,429.3z"/>
<path class="st3" d="M492.2,429.3c0,8.5-6.9,15.5-15.5,15.5H212.6c-8.6,0-15.5-6.9-15.5-15.5c0-2.5,0.6-4.9,1.7-7
	c48,4.6,96.7,7,145.9,7s97.8-2.4,145.8-7C491.7,424.5,492.3,426.9,492.2,429.3L492.2,429.3z"/>
<path class="st4" d="M325.8,412.2c-0.1-0.6-0.2-1.2-0.3-1.7c-3.6-20.8,11.4,77.5-32.4-221.2c0-0.2,0-0.3,0-0.5
	c-0.3-1.8,0-0.1-1.6-11c-0.2-0.4-1.9-21.2-22.6-21.2H77.5c-1.5,0-3,0.2-4.5,0.5c-1.1,0.2-2.1,0.5-3.1,0.8c-7.7,2.8-13.6,9.5-14.8,18
	l-7.9,53.9L25.8,376.9L20,416.4c-2.2,14.9,9.4,28.9,25,28.9h256.4c1.7,0,3.3-0.2,4.8-0.5c4.6-0.9,8.7-3,12-6.1
	C328.2,430,326.7,419.7,325.8,412.2L325.8,412.2z M244.6,194.5c8,0,15,6.4,15,15c0,8.3-6.6,15-14.9,15c0,0,0,0-0.1,0
	c-8,0-15-6.5-15-15C229.6,201.2,236.4,194.5,244.6,194.5L244.6,194.5z M101.8,194.5c8.3,0,15,6.7,15,15s-6.7,15-15,15
	c-8,0-15-6.6-15-15C86.8,201.3,93.5,194.5,101.8,194.5z"/>
<path class="st1" d="M325.8,412.2c-0.1-0.6-0.2-1.2-0.2-1.7c-0.4-2.5-0.6-3.3-0.7-3.3c-1.6-10.9-8-56.2-31.7-217.9
	c0-0.2,0-0.3,0-0.5c-0.3-1.8,0,0-1.6-11c-0.2-0.4-1.9-21.2-22.6-21.2h-7.8c1.1,8.7,1.7,17.6,1.7,26.6c0,116-94.1,210.1-210.1,210.1
	c-9.9,0-19.6-0.7-29.1-2L20,416.4c-2.3,14.9,9.4,28.9,25,28.9h256.4c1.7,0,3.3-0.1,4.8-0.4c4.6-0.9,8.7-3,12-6.1
	C328.2,430,326.7,419.8,325.8,412.2L325.8,412.2z"/>
<path class="st4" d="M262.9,445.3H94.3l-68.4-68.4l21.5-147.1L262.9,445.3z"/>
<path class="st5" d="M482.3,408.8l-2.7-18.3c-0.5-3.2-3.5-5.5-6.7-5s-5.5,3.5-5,6.7l0,0l2.3,15.8H331.1L300,195.2h100.5v22.1
	c-7.5,2.5-12.9,9.5-12.9,17.8c0,10.4,8.5,18.9,18.9,18.9s18.8-8.5,18.8-18.9c0-8.3-5.5-15.3-13-17.8v-22h15.1c5.2,0,10,3.1,12.2,7.8
	c0.1,0.3,0.3,0.5,0.4,0.8c0.7,1.5,2,10.6,5.5,35c3.2,22.1,8.3,57.8,16.9,116.2c0.5,3.2,3.5,5.5,6.7,5l0,0c3.2-0.5,5.5-3.5,5-6.7l0,0
	c-8.6-58.4-13.8-94.1-16.9-116.1c-5.1-35.4-5.3-36.8-7.1-39.6c-4.2-8.6-13.1-14.1-22.7-14.1h-15.1v-10c0-37.3-30.3-67.6-67.6-67.6
	c-30.1,0-55.7,19.8-64.4,47.1c-3.4-1.4-7.2-2.2-11.4-2.2h-18.4v-12.6c0-42.6-34.7-77.3-77.3-77.3s-77.3,34.7-77.3,77.3v12.6H77.5
	c-14,0-26.1,10.5-28.2,24.3c-40.8,278.9-28.8,197.3-35.2,241l0,0c-2.3,18.3,12.1,35,31,35c292-0.3,59.8,0.6,431.8-0.5
	c11.8,0,21.4-9.6,21.4-21.4C498.2,419.5,491.4,411.2,482.3,408.8L482.3,408.8z M406.4,242.1c-3.9,0-7.1-3.2-7.1-7.1c0-3.9,3.1-7,7-7
	l0,0c3.9,0,7,3.2,7,7C413.5,238.9,410.3,242.1,406.4,242.1z M344.7,117.5c30.8,0,55.8,25,55.8,55.8v10H298.3c-1-6.1-0.8-6.7-1.4-8
	c0.3,0.6,0.4,1,0.4,1c-1-6.5-3.4-11.8-6.8-16C296.4,135.8,318.4,117.5,344.7,117.5L344.7,117.5z M107.7,138.1
	c0-36.1,29.4-65.5,65.5-65.5s65.5,29.4,65.5,65.5v12.6h-131V138.1z M61,176.7c1.2-8.1,8.3-14.2,16.5-14.2h18.4v27.1
	c-9.4,2.8-15,11.1-15,19.9c0,11.5,9.4,20.9,20.9,20.9s20.9-9.4,20.9-20.9c0-9.5-6.4-17.4-15-19.9v-27.1h131v27.1
	c-8.6,2.6-15,10.5-15,19.9c0,9.2,5.9,17.2,14.6,19.9c13.4,4.4,27.2-5.8,27.2-19.9c0-9.2-6.1-17.4-15-19.9v-27.1h18.4
	c9.4,0,15.1,5.3,16.7,15.7c0.5,3.3,1.8,12.6,34.1,233c2,15.2-3.3,28.2-18.3,28.2h-36.1L53.6,227.7L61,176.7z M101.8,200.4
	c5,0,9.1,4.1,9.1,9.1s-4.1,9.1-9.1,9.1c-4.8,0-9.1-4-9.1-9.1C92.7,204.6,96.7,200.4,101.8,200.4z M244.6,200.4
	c4.8,0,9.1,3.8,9.1,9.1c0,5.9-5.5,10.7-11.8,8.6c-3.8-1.2-6.4-4.7-6.4-8.6C235.5,204.5,239.6,200.4,244.6,200.4z M51.4,242.3
	l197.2,197.1H96.7l-64.6-64.6C39.8,321.6,36.9,341.7,51.4,242.3z M25.9,417.3C25.9,417.3,25.9,417.2,25.9,417.3c0-0.1,0-0.1,0-0.2
	c0.4-2.9,1.9-13.1,4.1-27.8l50,50.1H45C32.9,439.4,24.2,428.5,25.9,417.3L25.9,417.3z M476.8,438.9H325.9c2.9-4.2,5.5-10.4,5.9-19.1
	h145c5.3,0,9.5,4.3,9.5,9.6S482.1,438.9,476.8,438.9L476.8,438.9z"/>
</svg>
