<svg width="64" height="64" viewBox="0 0 64 64" fill="none" xmlns="http://www.w3.org/2000/svg">
<path d="M41.4073 61.7741C52.6003 61.7741 61.674 52.7003 61.674 41.5074C61.674 30.3144 52.6003 21.2407 41.4073 21.2407C30.2143 21.2407 21.1406 30.3144 21.1406 41.5074C21.1406 52.7003 30.2143 61.7741 41.4073 61.7741Z" fill="#F9FAFF"/>
<path d="M64.0002 59.7472L50.8404 46.6189L46.5781 50.8711L59.7379 63.9994L64.0002 59.7472Z" fill="#F9FAFF"/>
<path d="M44.6496 0.577393L35.2031 54.1509L48.8609 56.5488L58.3073 2.97521L44.6496 0.577393Z" fill="#F9FAFF"/>
<path d="M23.9236 15.3972L17.0703 54.2643L30.7281 56.6622L37.5815 17.7951L23.9236 15.3972Z" fill="#F9FAFF"/>
<path d="M4.81584 27.0405L0 54.3525L13.6578 56.7503L18.4736 29.4383L4.81584 27.0405Z" fill="#F9FAFF"/>
<g style="mix-blend-mode:multiply">
<path opacity="0.6" d="M44.6496 0.577393L35.2031 54.1509L48.8609 56.5488L58.3073 2.97521L44.6496 0.577393Z" fill="#FF8221"/>
</g>
<g style="mix-blend-mode:multiply">
<path d="M23.9236 15.3975L17.0703 54.2644L30.7281 56.6623L37.5815 17.7952L23.9236 15.3975Z" fill="#FF8221"/>
</g>
<g style="mix-blend-mode:multiply">
<path opacity="0.6" d="M4.81584 27.0405L0 54.3525L13.6578 56.7503L18.4736 29.4383L4.81584 27.0405Z" fill="#FF8221"/>
</g>
<g style="mix-blend-mode:multiply">
<g style="mix-blend-mode:overlay">
<path d="M41.4073 61.7741C52.6003 61.7741 61.674 52.7003 61.674 41.5074C61.674 30.3144 52.6003 21.2407 41.4073 21.2407C30.2143 21.2407 21.1406 30.3144 21.1406 41.5074C21.1406 52.7003 30.2143 61.7741 41.4073 61.7741Z" fill="#2EBEEC"/>
</g>
<g style="mix-blend-mode:multiply">
<path d="M64.0002 59.7472L50.8404 46.6189L46.5781 50.8711L59.7379 63.9994L64.0002 59.7472Z" fill="#0047FF"/>
</g>
</g>
</svg>
