<?xml version="1.0" encoding="utf-8"?>
<!-- Generator: Adobe Illustrator 28.0.0, SVG Export Plug-In . SVG Version: 6.00 Build 0)  -->
<svg version="1.1" id="Layer_1" xmlns="http://www.w3.org/2000/svg" xmlns:xlink="http://www.w3.org/1999/xlink" x="0px" y="0px"
	 viewBox="0 0 180 215" style="enable-background:new 0 0 180 215;" xml:space="preserve">
<style type="text/css">
	.st0{fill-rule:evenodd;clip-rule:evenodd;fill:#FFFFFF;filter:url(#Adobe_OpacityMaskFilter);}
	.st1{mask:url(#path-1-inside-1_15588_315137_00000106120394037005449470000007318901392731524506_);}
	.st2{fill:none;stroke:#000000;stroke-miterlimit:10;}
	.st3{fill:#3856C4;stroke:#3856C4;stroke-width:2.1156;stroke-linejoin:round;}
	.st4{fill:none;stroke:#3856C4;stroke-width:2.1156;}
	.st5{fill:none;stroke:#8598DD;stroke-width:2.1156;stroke-linecap:round;}
	.st6{fill:none;stroke:#AEBAE8;stroke-width:2.1156;stroke-linecap:round;stroke-linejoin:round;}
	.st7{fill:none;stroke:#8598DD;stroke-width:2.1156;stroke-linecap:round;stroke-linejoin:round;}
	.st8{fill:none;stroke:#3856C4;stroke-width:2.1156;stroke-linecap:round;stroke-linejoin:round;}
	.st9{fill:none;stroke:#FFFFFF;stroke-width:2.1156;stroke-linecap:round;stroke-linejoin:round;}
	.st10{display:none;}
	.st11{font-family:'BradleyHandITC';}
	.st12{font-size:30px;}
</style>
<defs>
	<filter id="Adobe_OpacityMaskFilter" filterUnits="userSpaceOnUse" x="-1.1" y="-1.1" width="182.4" height="217.2">
		<feColorMatrix  type="matrix" values="1 0 0 0 0  0 1 0 0 0  0 0 1 0 0  0 0 0 1 0"/>
	</filter>
</defs>
<mask maskUnits="userSpaceOnUse" x="-1.1" y="-1.1" width="182.4" height="217.2" id="path-1-inside-1_15588_315137_00000106120394037005449470000007318901392731524506_">
	<path class="st0" d="M178.5,170.6l-2.7,13.3c-0.5,2.4-1.9,4.5-3.9,5.9l-14.7,10.3c-2.9,2-6.3,3.3-9.9,3.7L52,213.9
		c-10.5,1.1-20.1-6.1-21.9-16.5L1.1,32.2c-0.6-3.1,0.7-6.3,3.3-8.2l11.5-8.6c1.2-1,2.8-1.7,4.5-1.9L138.3,1.1
		c6.6-0.7,12.6,3.8,13.8,10.4l26.7,148.7c0.5,2.8,0.5,5.6,0.1,8.2l0,0l-0.1,0.3C178.8,169.3,178.6,170,178.5,170.6z"/>
</mask>
<path class="st1" d="M178.5,170.6l-2.1-0.5l0,0l0,0L178.5,170.6z M175.8,183.9l2.1,0.4L175.8,183.9z M171.9,189.8l-1.2-1.7
	L171.9,189.8z M157.2,200.1l1.2,1.7L157.2,200.1z M147.3,203.8l-0.2-2.1l0,0L147.3,203.8z M52,213.9l-0.2-2.1L52,213.9z M30.1,197.4
	l-2.1,0.4L30.1,197.4z M1.1,32.2L-1,32.6l0,0L1.1,32.2z M4.4,24l-1.3-1.7l0,0L4.4,24z M15.9,15.4l1.3,1.7l0,0l0,0L15.9,15.4z
	 M20.4,13.5l-0.2-2.1L20.4,13.5z M138.3,1.1l0.2,2.1L138.3,1.1z M152.1,11.5l2.1-0.4l0,0L152.1,11.5z M178.8,160.2l2.1-0.4
	L178.8,160.2z M178.9,168.4l-2.1-0.3l-0.1,0.5l0.1,0.5L178.9,168.4z M178.9,168.4l2.1,0.4l0.1-0.5l-0.2-0.5L178.9,168.4z
	 M178.9,168.7l-2.1-0.4l0,0l0,0L178.9,168.7z M176.4,170.2l-2.7,13.3l4.1,0.8l2.7-13.3L176.4,170.2z M173.7,183.5
	c-0.4,1.9-1.5,3.5-3,4.6l2.4,3.5c2.5-1.7,4.2-4.3,4.8-7.3L173.7,183.5z M170.7,188.1L156,198.4l2.4,3.5l14.7-10.3L170.7,188.1z
	 M156,198.4c-2.6,1.8-5.7,3-8.9,3.3l0.4,4.2c3.9-0.4,7.6-1.8,10.9-4.1L156,198.4z M147.1,201.7l-95.4,10.1l0.4,4.2l95.4-10.1
	L147.1,201.7z M51.8,211.8c-9.4,1-18-5.5-19.6-14.8l-4.2,0.7c2,11.5,12.6,19.5,24.2,18.3L51.8,211.8z M32.2,197L3.2,31.8L-1,32.6
	L28,197.7L32.2,197z M3.2,31.8c-0.4-2.4,0.5-4.7,2.4-6.2l-2.5-3.4c-3.2,2.4-4.8,6.4-4.1,10.3L3.2,31.8z M5.7,25.7L17.2,17l-2.5-3.4
	L3.1,22.3L5.7,25.7z M17.2,17c0.9-0.8,2.1-1.3,3.4-1.4l-0.4-4.2c-2.1,0.2-4.1,1.1-5.6,2.3L17.2,17z M20.6,15.6L138.5,3.2L138-1
	L20.1,11.4L20.6,15.6z M138.5,3.2C144,2.6,149,6.4,150,11.8l4.2-0.7C152.8,3.4,145.8-1.8,138-1L138.5,3.2z M150,11.8l26.7,148.7
	l4.2-0.7L154.2,11.1L150,11.8z M176.7,160.5c0.5,2.6,0.5,5.1,0.1,7.5l4.2,0.6c0.4-2.9,0.4-5.9-0.1-8.9L176.7,160.5z M176.9,169
	L176.9,169l4.1-1.2l0,0L176.9,169z M176.8,168l-0.1,0.3l4.1,0.8l0.1-0.3L176.8,168z M176.8,168.4c-0.1,0.6-0.2,1.2-0.4,1.8l4.1,1
	c0.2-0.7,0.3-1.4,0.4-2.1L176.8,168.4z"/>
<path class="st2" d="M13.3,25.4L42.8,190c1.2,6.6,7.2,11.1,13.8,10.4l37.6-4 M119,193.8l21.2-2.3c2.3-0.2,4.6-1,6.5-2.2l11.8-7.1
	l7.4-4.5"/>
<path class="st3" d="M71.6,141.7l-10.5,1.1l2.1,9.7l-9.6,1.1l2,9.9l9.8-1.1l2.1,9.6l10.5-1.1l-2.1-9.8l9.1-1.1l-2-9.9l-9.2,1.1
	L71.6,141.7z"/>
<path class="st3" d="M73.8,139l-10.5,1.1l-2.3,2.4l4.4,7.3l-9.6,1.1l-2.3,2.6l4.3,7.4l9.8-1.1l2.1,9.6l8.4,1.5l2.1-2.6l-2.1-9.8
	l6.8,1.6l2.3-2.7l-2-9.9l-9.2,1.1L73.8,139z"/>
<circle class="st4" cx="153.9" cy="138.5" r="7.3"/>
<path class="st5" d="M145.8,151.2c0-4.3-3.5-7.7-7.7-7.7c-4.3,0-7.7,3.5-7.7,7.7s3.5,7.7,7.7,7.7c2.7,0,5-1.4,6.4-3.4"/>
<path class="st2" d="M97.9,56.3c-1.4-0.7-7.6-3-10.3-1.6c-1.7,0.9-1.6,5.7-0.4,12.3 M99.1,75.7c-3.4,1.9-7.5,3.7-8.5,2.8
	c-1.8-1.7-1.9-3.4-3.4-11.5 M87.2,67c1,0,4.3,0.2,5.8-1"/>
<path class="st2" d="M68,68.7c-0.9-2.5-1.6-7.8-1.8-10.1c10.4-2.8,16.1,7.8,14.4,15.3c-1.4,6-7.5,7.5-10.2,8.6
	C70,78.9,68.9,71.2,68,68.7z"/>
<path class="st2" d="M102.6,54.8c0.2,2.4,1.8,6.7,4,10.7c1.4,2.5,4.5,5.9,5.9,9c0.2,0.5,1.1,0.4,1.2-0.1c0.4-1.8,0.8-3.8,1.1-4.7
	c0.6-1.7,2.8-8,3.1-11.5c0.2-2.7,1.1-5.8,1.5-6.9"/>
<path class="st6" d="M84.9,25.5L89.3,47 M103.6,111.4L99,88.3"/>
<path class="st7" d="M94.3,112l-0.1-9.2"/>
<path class="st6" d="M80.3,102.2l1.8-7.6"/>
<path class="st8" d="M131.7,101.6l-9.3-7.9 M119.2,90.9l-3.4-3.1"/>
<path class="st7" d="M56.1,28.8l9.1,9.8 M117.8,109.2l-9.5-16.4 M74.7,48.6l-4.9-5.2"/>
<path class="st8" d="M96.1,42.4L96,24.6 M88.2,104.7l2.1-18.5"/>
<path class="st7" d="M66.6,115.4l6.9-14.7"/>
<path class="st6" d="M56.2,113l1.5-1.6 M60.4,108.3l4.9-5.4"/>
<path class="st7" d="M47.1,72.6L57.6,72"/>
<path class="st8" d="M36.2,55.3l7.7,1 M48.3,56.8l7.5,0.8"/>
<path class="st7" d="M46.4,108.9l7.1-6.1l2.7-2.4 M124.5,46.5l3-2.6 M69.4,89l-1.3,1.2l-9.2,8 M140.5,33l-10,8.2"/>
<path class="st8" d="M58.8,85.1l-6.4,3.4L46,91.7l-3.2,1.6 M127.8,55.2l15.9-3.4"/>
<path class="st8" d="M128,75.4l14.8,2.9"/>
<path class="st6" d="M151.3,98l-13.4-6.6 M133,88.9l-7.8-4.1"/>
<path class="st6" d="M32.1,39.5l25.7,12.8"/>
<path class="st8" d="M46.6,29.8l10,8.7"/>
<path class="st7" d="M75,30.7l5.1,10.2"/>
<path class="st8" d="M114.9,22.6L109,39.1"/>
<path class="st7" d="M104.5,27.7l-0.9,4.9"/>
<path class="st6" d="M127.7,24.9l-4.5,6.9 M120.4,35.8l-3.5,5.4"/>
<path class="st7" d="M136.5,64.5h-11.3"/>
<path class="st2" d="M31.2,35.8c-0.5-2.4,1.2-4.8,3.7-5l99.2-10.4c2.2-0.2,4.2,1.3,4.6,3.4l12.7,69c1.3,7.3-3.8,14.1-11.1,14.9
	l-89,9.5c-2.2,0.2-4.2-1.2-4.6-3.4L31.2,35.8z"/>
<path class="st9" d="M63.7,142.2l0.9,4.3 M69.1,168.8l-2-9.1l-9,1.1l-0.7-3.1 M79.5,158.3l4.4-0.5 M56.3,153.1l0.3,1.1"/>
<text transform="matrix(0.9916 -0.1295 0.1295 0.9916 69.1277 78.2858)" class="st10 st11 st12">DEV</text>
</svg>
