<?xml version="1.0" encoding="utf-8"?>
<!-- Generator: Adobe Illustrator 28.0.0, SVG Export Plug-In . SVG Version: 6.00 Build 0)  -->
<svg version="1.1" id="Layer_1" xmlns="http://www.w3.org/2000/svg" xmlns:xlink="http://www.w3.org/1999/xlink" x="0px" y="0px"
	 viewBox="0 0 177 207" style="enable-background:new 0 0 177 207;" xml:space="preserve">
<style type="text/css">
	.st0{clip-path:url(#SVGID_00000029035779811663430870000010036552898300996258_);}
	.st1{fill:#3856C4;}
	.st2{fill:none;stroke:#000000;stroke-miterlimit:10;}
	.st3{fill:none;stroke:#8598DD;stroke-width:2.22;stroke-linecap:round;stroke-linejoin:round;}
	.st4{fill:none;stroke:#3856C4;stroke-width:2.22;stroke-linecap:round;stroke-linejoin:round;}
	.st5{fill:none;stroke:#D6DDF4;stroke-width:2.22;stroke-linecap:round;stroke-linejoin:round;}
</style>
<g>
	<defs>
		<rect id="SVGID_1_" width="177" height="207"/>
	</defs>
	<clipPath id="SVGID_00000102507531803914576320000012018476533621864120_">
		<use xlink:href="#SVGID_1_"  style="overflow:visible;"/>
	</clipPath>
	<g style="clip-path:url(#SVGID_00000102507531803914576320000012018476533621864120_);">
		<path class="st1" d="M17.9,175.9c-3.3-8.1,0.7-17.3,8.8-20.5l29.6-11.7l20.2,49.5l-29.8,12c-8,3.2-17.2-0.6-20.4-8.7L17.9,175.9z"
			/>
		<path class="st2" d="M32.8,160.1c0,0-5.2,2-6.5,3.5 M24.4,168.9c-0.4,1.2,0.4,3.3,0.4,3.3"/>
		<path class="st2" d="M89.8,182.8c43.7-18.2,77.3-57.9,84.4-108.2C184.9-1,130.3-69.3,54.7-79.9c-6.7-0.9-15.6-1-22.1-1
			c0,0,15.7,12.6,25.5,27.9c9.8,15.3,11.7,21.4,11.7,21.4c45.4,16.9,61.6,63.6,56.4,101c-4.4,31.2-28.5,59-55.6,70.4"/>
		<path class="st2" d="M-140.1,3.7c7.4-28.4,29.1-52.3,59.4-61.1C-35-70.7,12.8-44.4,26.1,1.3c4,13.8,4.4,27.8,1.8,41l0,0
			c-3.5,15-22.5,44.3-52.9,32.6C-64.3,59.8-46.2-5.4,13.8-23.8C11.1-29-3.6-47.7-30.2-56.5c-17.7,8.1-45.1,27.3-59.6,62.8
			c-18.1,44.3-5.5,98.2,46.2,119.3C0.7,143.6,62.8,118.5,78,57.2l0,0c5.3-22.5,5.1-46.7-1.8-70.5C54.8-86.7-22-128.8-95.3-107.4
			c-48.5,14.1-79,53.7-95.2,98.1c-11.6,31.7-16.6,92.1,6.1,142.5c0.3,0.7,0.8,1.3,1.4,1.8l47.1,35.4c1.3,0.9,3-0.1,2.9-1.7
			l-1.1-53.3c-3-18-16.9-47.5-9.9-92.4"/>
		<path class="st2" d="M80.6,162.2l7.6,19c1.7,4.3-0.3,9.1-4.6,10.8l0,0c-4.3,1.7-9.1-0.3-10.8-4.6l-15.3-37.9
			c-1.7-4.3,0.3-9.1,4.6-10.8l0,0c4.3-1.7,9.1,0.3,10.8,4.6l2.3,5.6"/>
		<path class="st3" d="M-19.7-43.1c-6,1.5-31.7,18-46.8,43.6C-88,37-80.9,85.1-45.3,105c35.7,19.9,88.2,0.3,103.4-44.5
			c10.4-30.8,5.9-67.5-13.5-98.2 M60.4-61.1c28.1,0.8,81,36,93.4,85.4c17.3,68.7-26.1,122.8-63.7,139.1 M-170.2,113
			c-7.6-25-12.1-54.6-8.4-80.6c7.2-50.2,22.9-71.9,38.5-89.4c25-28,90.4-52.8,140.3-22.2c12.3,7.6,25.3,17,33.9,27"/>
		<path class="st4" d="M72.7-49.2c11.5,3.4,26.2,11,39.6,23.2 M85.4,154.9c27.6-10.3,68.2-50.5,62.9-110.3
			c-1.6-17.8-9.1-35.9-17.1-48.4"/>
		<path class="st4" d="M-9.5-37.3C-81.2-3.2-76.9,69.1-43,92.8c30.9,21.6,72.5,1.4,86.4-26.7c13.9-28,13-81.7-27.3-119.2
			C-29.6-95.5-84-80.8-102.2-72c-14.5,7-50.1,27.3-63.3,88.2c-2.9,13.5-3.5,30.5-2.6,44.8 M-167.9,72.5c2.2,18.4,7.7,39.6,8.1,40.8"
			/>
		<path class="st5" d="M-182.9,115.7c-9.4-28.7-19.4-100.3,16.1-156.8c44.4-70.6,128.6-82.8,189.4-36.4
			c60.8,46.3,63.7,130.3,27.1,173C15,135.8-55.2,133-81.1,83C-107.7,31.7-69.5-30.6-31.8-47.5 M50.8-71.9
			c18.5,0.2,64.4,13.2,93.4,54c37.7,53.1,32.8,147.5-50.1,190.1"/>
		<path class="st3" d="M75.2-38.6c18.2,5.9,56.1,30.7,61.8,82.7c7.1,65-48.1,99.1-53.8,100.7"/>
		<path class="st3" d="M-148.1,106.4c-9.1-25.1-19.7-87,11.4-134C-95.9-89.3-20.2-76.4,10.1-44.2C45.5-6.7,53.1,52.5,16.4,80
			c-36.7,27.5-75.7-5.7-72.6-42.1c3.2-36.4,36.5-59.8,54.3-67.1"/>
	</g>
</g>
</svg>
