<?xml version="1.0" encoding="utf-8"?>
<!-- Generator: Adobe Illustrator 28.0.0, SVG Export Plug-In . SVG Version: 6.00 Build 0)  -->
<svg version="1.1" id="Layer_1" xmlns="http://www.w3.org/2000/svg" xmlns:xlink="http://www.w3.org/1999/xlink" x="0px" y="0px"
	 viewBox="0 0 183 207" style="enable-background:new 0 0 183 207;" xml:space="preserve">
<style type="text/css">
	.st0{clip-path:url(#SVGID_00000075146427338620635350000002376810962069030276_);fill:none;}
	.st1{clip-path:url(#SVGID_00000075146427338620635350000002376810962069030276_);fill:none;stroke:#000000;stroke-miterlimit:10;}
	
		.st2{clip-path:url(#SVGID_00000075146427338620635350000002376810962069030276_);fill:none;stroke:#8598DD;stroke-width:2.22;stroke-linecap:round;stroke-linejoin:round;}
	
		.st3{clip-path:url(#SVGID_00000075146427338620635350000002376810962069030276_);fill:none;stroke:#3856C4;stroke-width:2.22;stroke-linecap:round;stroke-linejoin:round;}
	
		.st4{clip-path:url(#SVGID_00000075146427338620635350000002376810962069030276_);fill:none;stroke:#D6DDF4;stroke-width:2.22;stroke-linecap:round;stroke-linejoin:round;}
	.st5{clip-path:url(#SVGID_00000075146427338620635350000002376810962069030276_);fill:#3856C4;}
</style>
<g>
	<defs>
		<rect id="SVGID_1_" width="183" height="207"/>
	</defs>
	<clipPath id="SVGID_00000069395206643691466380000000333442291359864753_">
		<use xlink:href="#SVGID_1_"  style="overflow:visible;"/>
	</clipPath>
	<path style="clip-path:url(#SVGID_00000069395206643691466380000000333442291359864753_);fill:none;" d="M291.8,182.8
		c43.7-18.2,77.3-57.9,84.4-108.2C386.9-1,332.3-69.3,256.7-79.9c-6.7-0.9-15.6-1-22.1-1c0,0,15.7,12.6,25.5,27.9
		c9.8,15.3,11.7,21.4,11.7,21.4c45.4,16.9,61.6,63.6,56.4,101c-4.4,31.2-28.5,59-55.6,70.4"/>
	
		<path style="clip-path:url(#SVGID_00000069395206643691466380000000333442291359864753_);fill:none;stroke:#000000;stroke-miterlimit:10;" d="
		M61.9,3.7c7.4-28.4,29.1-52.3,59.4-61.1c45.7-13.3,93.5,13,106.8,58.7c4,13.8,4.4,27.8,1.8,41l0,0c-3.5,15-22.5,44.3-52.9,32.6
		c-39.2-15.1-21.1-80.3,38.8-98.7c-2.7-5.2-17.4-23.9-43.9-32.7c-17.7,8.1-45.1,27.3-59.6,62.8c-18.1,44.3-5.5,98.2,46.2,119.3
		c44.3,18.1,106.4-7.1,121.5-68.4l0,0c5.3-22.5,5.1-46.7-1.8-70.5c-21.4-73.4-98.1-115.5-171.5-94.1c-48.5,14.1-79,53.7-95.2,98.1
		C-0.2,22.3-5.1,82.7,17.5,133.1c0.3,0.7,0.8,1.3,1.4,1.8L66,170.4c1.3,0.9,3-0.1,2.9-1.7l-1.1-53.3c-3-18-16.9-47.5-9.9-92.4"/>
	
		<path style="clip-path:url(#SVGID_00000069395206643691466380000000333442291359864753_);fill:none;stroke:#000000;stroke-miterlimit:10;" d="
		M43,152.8c4-1.2,13.1-4.7,25.1-3.3"/>
	
		<path style="clip-path:url(#SVGID_00000069395206643691466380000000333442291359864753_);fill:none;stroke:#000000;stroke-miterlimit:10;" d="
		M17.9,134.1c-2.8-8.2,2-12.5,7.3-13.4c6.8-1.2,15.3,3.5,20.1,7.3c-0.6-3.4-0.9-10.6,2.8-12.5s8.5,2.7,10.4,5.2
		c1-3.2,4.1-8.5,8.9-4.1"/>
	
		<path style="clip-path:url(#SVGID_00000069395206643691466380000000333442291359864753_);fill:none;stroke:#8598DD;stroke-width:2.22;stroke-linecap:round;stroke-linejoin:round;" d="
		M182.3-43.1c-6,1.5-31.7,18-46.8,43.6C114,37,121.1,85.1,156.7,105c35.7,19.9,88.2,0.3,103.4-44.5c10.4-30.8,5.9-67.5-13.5-98.2
		 M262.4-61.1c28.1,0.8,81,36,93.4,85.4c17.3,68.7-26.1,122.8-63.7,139.1 M31.8,113c-7.6-25-12.1-54.6-8.4-80.6
		C30.5-17.8,46.2-39.5,61.9-57c25-28,90.4-52.8,140.3-22.2c12.3,7.6,25.3,17,33.9,27"/>
	
		<path style="clip-path:url(#SVGID_00000069395206643691466380000000333442291359864753_);fill:none;stroke:#3856C4;stroke-width:2.22;stroke-linecap:round;stroke-linejoin:round;" d="
		M192.5-37.3C120.8-3.2,125.1,69.1,159,92.8c30.9,21.6,72.5,1.4,86.4-26.7c13.9-28,13-81.7-27.3-119.2C172.4-95.5,118-80.8,99.8-72
		c-14.5,7-50.1,27.3-63.3,88.2c-2.9,13.5-3.5,30.5-2.6,44.8 M34.1,72.5c2.2,18.4,7.7,39.6,8.1,40.8"/>
	
		<path style="clip-path:url(#SVGID_00000069395206643691466380000000333442291359864753_);fill:none;stroke:#D6DDF4;stroke-width:2.22;stroke-linecap:round;stroke-linejoin:round;" d="
		M19.1,115.7C9.7,87-0.3,15.4,35.2-41.1c44.4-70.6,128.6-82.8,189.4-36.4c60.8,46.3,63.7,130.3,27.1,173
		C217,135.8,146.8,133,120.9,83C94.3,31.7,132.5-30.6,170.2-47.5 M252.8-71.9c18.5,0.2,64.4,13.2,93.4,54
		c37.7,53.1,32.8,147.5-50.1,190.1"/>
	
		<path style="clip-path:url(#SVGID_00000069395206643691466380000000333442291359864753_);fill:none;stroke:#8598DD;stroke-width:2.22;stroke-linecap:round;stroke-linejoin:round;" d="
		M53.9,106.4c-9.1-25.1-19.7-87,11.4-134c40.8-61.7,116.5-48.8,146.8-16.6c35.3,37.5,42.9,96.7,6.2,124.2
		c-36.7,27.5-75.7-5.7-72.6-42.1c3.2-36.4,36.5-59.8,54.3-67.1"/>
	<path style="clip-path:url(#SVGID_00000069395206643691466380000000333442291359864753_);fill:#3856C4;" d="M70.3,151.6
		c-7.5-3.3-21.4-0.2-27.9,2.8l20.9,16c2.5,1.7,4.2,2.3,6.1,1c2.1-1.5,1.3-5.7,1.3-7.9L70.3,151.6z"/>
</g>
</svg>
