<svg width="64" height="64" viewBox="0 0 64 64" fill="none" xmlns="http://www.w3.org/2000/svg">
<g clip-path="url(#clip0_645_2814)">
<path d="M58.1346 6.3999H9.6901C8.21735 6.3999 7.02344 7.59381 7.02344 9.06657V42.9154C7.02344 44.3882 8.21735 45.5821 9.6901 45.5821H58.1346C59.6073 45.5821 60.8013 44.3882 60.8013 42.9154V9.06657C60.8013 7.59381 59.6073 6.3999 58.1346 6.3999Z" fill="#F9FAFF"/>
<path d="M58.6667 42.6667H0V49.0667H58.6667V42.6667Z" fill="#F9FAFF"/>
<path d="M61.3344 18.1333H46.401C44.9283 18.1333 43.7344 19.3272 43.7344 20.8V51.7333C43.7344 53.2061 44.9283 54.4 46.401 54.4H61.3344C62.8071 54.4 64.001 53.2061 64.001 51.7333V20.8C64.001 19.3272 62.8071 18.1333 61.3344 18.1333Z" fill="#F9FAFF"/>
<path d="M54.4026 22.3999C54.9917 22.3999 55.4693 21.9224 55.4693 21.3333C55.4693 20.7442 54.9917 20.2666 54.4026 20.2666C53.8135 20.2666 53.3359 20.7442 53.3359 21.3333C53.3359 21.9224 53.8135 22.3999 54.4026 22.3999Z" fill="#F9FAFF"/>
<path opacity="0.6" d="M58.1346 6.3999H9.6901C8.21735 6.3999 7.02344 7.59381 7.02344 9.06657V42.9154C7.02344 44.3882 8.21735 45.5821 9.6901 45.5821H58.1346C59.6073 45.5821 60.8013 44.3882 60.8013 42.9154V9.06657C60.8013 7.59381 59.6073 6.3999 58.1346 6.3999Z" fill="#FF8221"/>
<path d="M58.6667 42.6667H0V49.0667H58.6667V42.6667Z" fill="#0047FF"/>
<g style="mix-blend-mode:multiply">
<g style="mix-blend-mode:overlay">
<path d="M61.3344 18.1333H46.401C44.9283 18.1333 43.7344 19.3272 43.7344 20.8V51.7333C43.7344 53.2061 44.9283 54.4 46.401 54.4H61.3344C62.8071 54.4 64.001 53.2061 64.001 51.7333V20.8C64.001 19.3272 62.8071 18.1333 61.3344 18.1333Z" fill="#2EBEEC"/>
</g>
</g>
<path d="M54.4026 22.3999C54.9917 22.3999 55.4693 21.9224 55.4693 21.3333C55.4693 20.7442 54.9917 20.2666 54.4026 20.2666C53.8135 20.2666 53.3359 20.7442 53.3359 21.3333C53.3359 21.9224 53.8135 22.3999 54.4026 22.3999Z" fill="white"/>
</g>
<defs>
<clipPath id="clip0_645_2814">
<rect width="64" height="64" fill="white"/>
</clipPath>
</defs>
</svg>
