<?xml version="1.0" encoding="UTF-8"?>
<svg id="Layer_1" data-name="Layer 1" xmlns="http://www.w3.org/2000/svg" xmlns:xlink="http://www.w3.org/1999/xlink" viewBox="0 0 398 366">
  <defs>
    <style>
      .cls-1, .cls-2, .cls-3, .cls-4, .cls-5, .cls-6, .cls-7, .cls-8, .cls-9 {
        fill: none;
      }

      .cls-1, .cls-2, .cls-3, .cls-5, .cls-6, .cls-7, .cls-8, .cls-9 {
        stroke-width: 2px;
      }

      .cls-1, .cls-2, .cls-3, .cls-5, .cls-6, .cls-9 {
        stroke-linecap: round;
      }

      .cls-1, .cls-3, .cls-6 {
        stroke-linejoin: round;
      }

      .cls-1, .cls-9 {
        stroke: #aebae8;
      }

      .cls-10 {
        fill: #3856c4;
      }

      .cls-10, .cls-4 {
        stroke-width: 0px;
      }

      .cls-2, .cls-6 {
        stroke: #8598dd;
      }

      .cls-3 {
        stroke: #3856c4;
      }

      .cls-5 {
        stroke: #fff;
      }

      .cls-7 {
        stroke-miterlimit: 10;
      }

      .cls-7, .cls-8 {
        stroke: #f4f4f4;
      }

      .cls-11 {
        clip-path: url(#clippath);
      }
    </style>
    <clipPath id="clippath">
      <rect class="cls-4" x="124.67" y="-13.11" width="266.33" height="375.76"/>
    </clipPath>
  </defs>
  <polygon class="cls-4" points="-103.15 345.33 -70.66 -29 123.66 -11.85 106.85 181.77 94.84 181.77 106.85 181.77 91.16 362.49 -103.15 345.33"/>
  <g class="cls-11">
    <g>
      <path class="cls-10" d="m356.92,7.74c-.64-3.62-5.52-4.28-7.08-.95l-14.01,29.79c-.66,1.41-2.11,2.26-3.66,2.15l-37.92-2.74c-3.81-.28-5.54,4.71-2.39,6.89l29.91,20.71c1.39.97,1.98,2.75,1.42,4.36l-8.17,23.62c-1.11,3.2,2.19,6.14,5.2,4.64l23.26-11.59c1.33-.66,2.93-.47,4.07.49l25.7,21.7c2.83,2.39,7.03-.35,6.02-3.93l-9.01-31.95c-.41-1.46.08-3.03,1.26-3.98l17.82-14.46c2.49-2.02,1.5-6.05-1.64-6.66l-22.37-4.39c-1.52-.3-2.7-1.51-2.98-3.05l-5.45-30.65Z"/>
      <path class="cls-5" d="m353.25,82.71l10.08,8.46m-21.57-12.02c2.11-1.17,4.06-.6,4.67-.4"/>
      <path class="cls-7" d="m303.92,81.04c-24.72-15.43-55.92-24.64-89.84-24.64m-41.37,225.67c15.19,3.06,30.66,4.32,41.37,4.32m118.03-182c17.11,18.87,27.18,42,27.18,67,0,56.46-51.38,103.42-119.14,113.15"/>
      <path class="cls-7" d="m213.2,56.43c44.26,0,80.14,34.1,80.14,76.17s-35.88,76.17-80.14,76.17c-2.21-.12-7.22-.24-11.67-1.51"/>
      <path class="cls-1" d="m169.56,267.45c43.43,8.86,111.84,3.04,148.25-35.42,44.02-46.5,25.83-93.93,25.83-93.93"/>
      <path class="cls-2" d="m321,205.02c-8.77,14-20.93,25.38-34.02,33.31-21.03,12.76-48.46,17.15-73.27,17.32-17.99.12-34.6-1.98-46.39-4.73m161.51-61.47c8.67-22.39,8.7-49.53-7.05-79.11"/>
      <path class="cls-6" d="m246.99,220.15c-17.66,5.84-36.83,6.52-55.14,2.45m68.08-7.81c10.31-5.2,19.82-12.4,27.98-21.68,27.33-31.08,16.21-65.29,16.21-65.29"/>
      <path class="cls-3" d="m176.81,237.35c24.8,4.85,76.9,10.97,115.68-23.72,27.9-24.95,42.66-74.68,2.73-124.04"/>
      <path class="cls-4" d="m145.1-170.55c10.71,0,26.18,1.25,41.37,4.32L27.01,11.38C9.94-7.47-.11-30.59-.11-55.56c0-63.51,65.01-115,145.21-115Z"/>
      <path class="cls-4" d="m100.29,53.84c-16.72-4.29-32.13-10.9-45.58-19.39l49.19,13.6c-1.67,1.52-2.91,3.57-3.61,5.79Z"/>
      <path class="cls-8" d="m102.35,47.13c-32.69-19.89-47.69-66.54-26.77-100.31"/>
      <path class="cls-1" d="m135.88-157.22c17.26-.42,39.28,1.21,51.08,4.82m-71.83-2.53c-25.39,4.4-57.6,18.42-75.27,37.08C-11.59-63.51,27.25-3.85,34.56,3.53"/>
      <path class="cls-3" d="m188.03-136.29c-30.51-7.76-89.27-12.65-131.74,22.88C21.74-84.51,12.87-32.84,65.54,25.82"/>
      <path class="cls-10" d="m212.92,335.2c-3.73.19-4.92,5.17-1.69,7.05l9.39,5.47c1.12.65,1.82,1.83,1.87,3.13l.29,7.61c.13,3.51,4.52,4.96,6.69,2.21l4.31-5.47c1.16-1.47,3.2-1.86,4.81-.92l5.61,3.27c3.24,1.88,6.92-1.64,5.22-5l-4.84-9.55c-.62-1.22-.53-2.69.23-3.83l5.24-7.87c2.06-3.09-1.09-7.01-4.51-5.62l-6.75,2.74c-2.03.82-4.33-.27-4.98-2.38l-1.02-3.28c-1.1-3.54-6.07-3.54-7.16,0l-2.91,9.45c-.47,1.52-1.82,2.57-3.39,2.66l-6.41.33Z"/>
      <path class="cls-9" d="m111.51,252.38l42.85,40.7m-48.32-55.02l.83-53.77m-31.44,53.92l-30.47-8.83m55.13,15.98l-16.58-4.81"/>
      <path class="cls-2" d="m152.68,219.69l13.67-7.96m-27.35,15.92l-27.35,15.92"/>
    </g>
  </g>
  <path class="cls-7" d="m93.06,175.7l8.84-27.08c1.17-3.58,6.24-3.42,7.19.22l14.44,55.37c.53,2.02,2.57,3.23,4.57,2.7l64.49-16.96c3.7-.97,6.3,3.61,3.6,6.34l-49.57,49.99c-1.09,1.1-1.4,2.77-.78,4.2l24.29,55.76c1.47,3.37-2.22,6.65-5.35,4.77l-49.42-29.64c-1.33-.8-3.01-.69-4.23.27l-8.44,6.67-25.02,19.78c-2.51,1.99-6.18.1-6.06-3.11l1.56-43.09c.05-1.43-.71-2.77-1.96-3.46l-62.96-34.55c-3.37-1.85-2.14-7,1.7-7.1l28.17-.73,10.54-.27,10.54-.27,18.43-.48c1.58-.04,2.97-1.08,3.47-2.6l5.58-17.08"/>
</svg>